<?xml version="1.0" encoding="UTF-8"?>
<svg id="Calque_1" data-name="Calque 1" xmlns="http://www.w3.org/2000/svg" viewBox="0 0 488.77 445.53">
  <defs>
    <style>
      .cls-1 {
        fill: #151930;
      }

      .cls-2 {
        fill: #30519f;
      }

      .cls-3 {
        fill: #809bd0;
      }

      .cls-4 {
        fill: #f9d39d;
      }

      .cls-5 {
        fill: #e97126;
      }
    </style>
  </defs>
  <g>
    <path class="cls-2" d="M210.96,255.51c-2.24-23.2-23.74-24.71-37.97-25.7l-6.06-.43-.82,6.03c-1.07,7.92-3.87,34.83-4.19,48.81l-.14,5.83,5.78.76c2.5.33,4.94.49,7.31.49,10.78,0,20.08-3.36,26.68-9.74,6.93-6.69,10.36-16.18,9.41-26.05ZM192.53,272.23c-4.15,4.01-10.09,6.08-17.38,6.1.59-10.76,1.99-25.53,3.07-35.05,13.68,1.44,18.93,4.33,19.81,13.48.57,5.9-1.43,11.54-5.5,15.47Z"/>
    <polygon class="cls-2" points="103.86 216.1 90.89 215.53 87.82 285.7 141.32 291.3 142.68 278.39 101.32 274.06 103.86 216.1"/>
    <path class="cls-2" d="M136.6,257.04c-.92.62-2.51,1.37-5.6.65-2.85-.67-3.93-2.04-4.56-3.17-4.24-7.64,1.86-25.69,4.16-32.48.27-.79.51-1.51.71-2.13l-12.33-4.05c-.2.59-.42,1.27-.68,2.02-3.58,10.59-10.24,30.29-3.21,42.94,2.7,4.86,7.17,8.15,12.93,9.5,1.81.43,3.58.64,5.3.64,3.85,0,7.43-1.06,10.53-3.16,10.26-6.93,12.72-22.96,14.34-33.57.3-1.98.56-3.69.82-4.91l-12.45-4.19c-.32,1.56-4.42,28.16-9.98,31.91Z"/>
    <g>
      <path class="cls-2" d="M228.86,244.89l-12.97-.65c-.96,22.02,1.65,46.05,1.76,47.06l12.89-1.63c-.03-.24-2.59-23.93-1.68-44.78Z"/>
      <path class="cls-2" d="M229.44,225.47c-5.6-6.36-18.1-1.14-15.91,7.61,1.93,6.39,11.35,7.5,15.54,2.61,2.68-2.73,3.1-7.22.48-10.1l-.11-.13Z"/>
    </g>
    <path class="cls-2" d="M395.48,265.01c-12.73,5.52-22.81,5.09-24.9,2.68-1.43-1.64-2.97-5.72-3.84-11.76,8.15-.31,18.3-1.71,20.91-2.08l-1.84-12.85c-6.64.95-14.59,1.77-19.9,1.99-.18-10.32.62-14.13,1.43-15.41,3.79-2.36,15.57-2.65,24.56-1.55l1.59-12.88c-4.01-.5-24.5-2.63-33.87,3.99-6.45,4.56-7.26,14.91-6.49,32.42.31,7.03,1.71,19.85,7.66,26.68,4.08,4.68,10.06,6.23,16.19,6.23,10.15,0,20.7-4.24,23.67-5.53l-5.17-11.91Z"/>
    <g>
      <path class="cls-2" d="M315.62,278.09l-2.99,11.24c-.35,1.19-1.4,1.97-2.57,1.97-.14,0-.29-.02-.43-.04l-.24-.05-8.93-2.38.3-1.24-20.08-5.33,1.88-6.48,26.33,7.01,1.62-6.05,5.1,1.35Z"/>
      <path class="cls-2" d="M297.18,240.76c-2.72-11.72-11.64-20.89-23.31-23.95-14.62-3.78-30.13,3.23-36.96,16.67-.15.26-.28.52-.42.8l-.1.2c-.22.44-.41.87-.59,1.33-.18.42-.37.89-.55,1.41-.08.18-.14.37-.2.56-.15.42-.27.85-.4,1.28l-.11.36c-.05.16-.1.32-.14.48-.14.52-.25.98-.34,1.43-.2.92-.36,1.86-.47,2.79-.09.72-.16,1.42-.2,2.04-.04.64-.06,1.26-.05,1.9-.1,14.76,9.79,27.71,24.06,31.49l30.94,8.27.96-3.27,1.89-6.47.07-.26c2.61-9.02,5.82-20.49,6.42-24.17.76-4.25.59-8.7-.5-12.89ZM260.74,267.01c-8.56-2.27-14.5-10.05-14.42-18.91v-.13c-.01-.29,0-.58.03-.93.02-.44.07-.89.13-1.32v-.14c.07-.48.15-.97.26-1.45l.07-.33c.03-.17.07-.33.12-.49l.05-.17.11-.38s.03-.08.04-.12l.31-.95c.11-.34.25-.67.38-.99l.04-.11c.05-.12.11-.24.14-.3l.42-.8c4.06-8.13,13.4-12.38,22.18-10.12,6.99,1.83,12.34,7.35,13.95,14.4l.05.22c.64,2.4.74,4.96.29,7.4l-.03.19c-.24,1.59-1.81,7.79-5.44,20.42l-18.68-4.99Z"/>
      <g>
        <path class="cls-2" d="M278.28,254.33c-.21-.69-.68-1.26-1.32-1.59-.64-.34-1.37-.41-2.06-.2-.69.22-1.25.69-1.59,1.32-1.55,2.94-4.52,2.46-5.1,2.33-.21-.05-.42-.08-.62-.08-1.22,0-2.32.83-2.62,2.06-.36,1.43.48,2.85,1.89,3.25.42.1.8.17,1.21.21,1.61.16,7.09.28,10.02-5.26.33-.63.4-1.36.19-2.04Z"/>
        <path class="cls-2" d="M265.74,242.02c-.73,2.67-3.29,4.35-5.95,4.07-.3-.03-.6-.08-.91-.17-2.97-.81-4.72-3.89-3.9-6.86.12-.43.4-.79.79-1.01.39-.22.85-.27,1.28-.16.43.12.79.4,1.01.79.22.39.27.84.16,1.28-.16.57-.08,1.17.22,1.68.29.52.77.89,1.34,1.05.57.15,1.18.08,1.69-.22.51-.3.89-.77,1.04-1.34.13-.44.4-.79.79-1.02.39-.22.84-.27,1.28-.16.43.12.79.4,1.01.79.22.39.27.84.16,1.28Z"/>
        <path class="cls-2" d="M271.63,249.43c.3.08.61.14.91.17,1.15.12,2.3-.12,3.32-.7,1.3-.74,2.23-1.93,2.62-3.37.25-.89-.28-1.82-1.17-2.06-.43-.12-.88-.06-1.28.16-.39.22-.67.58-.79,1.01-.32,1.18-1.55,1.88-2.73,1.55s-1.88-1.55-1.55-2.73c.12-.43.06-.89-.16-1.28-.22-.39-.58-.67-1.01-.79-.43-.12-.88-.06-1.27.16s-.67.58-.79,1.02c-.39,1.44-.21,2.94.53,4.24.74,1.3,1.93,2.23,3.37,2.62Z"/>
      </g>
    </g>
    <path class="cls-2" d="M346.13,209.86l-12.88,1.62c.02.15,1.89,15.24.91,26.95-.84,9.95-3.58,17.63-7.33,20.56-1.05.82-2.84,1.84-6.2,1.29-1.38-.23-4.28-5.15-4.44-18.91-.14-11.18,1.56-22.34,1.59-22.54l-12.83-1.99c-.08.49-1.88,12.25-1.74,24.54.2,19.41,5.36,30.08,15.32,31.71,1.32.22,2.62.32,3.89.32,4.61,0,8.84-1.42,12.39-4.19,8.66-6.74,11.46-19.87,12.28-29.7,1.1-13.09-.88-28.99-.96-29.66Z"/>
    <g>
      <path class="cls-2" d="M395.37,148.05l-12.76-2.37c-4.17,22.49-5.47,46.96-5.53,48.03l12.92,1.5c.01-.25,1.36-25.54,5.37-47.17Z"/>
      <path class="cls-2" d="M178.97,201.09c-14.02,3.7-18.4,1.5-32.67-10.36-2.75-2.28-5.15-4.54-7.4-6.76,12.11-16.9,19.62-45.25,8.84-79.84l-12.39,3.86c9.29,29.81,3.13,53.17-5.88,66.83-6.1-5.44-13.1-9.98-24.05-11.9-6.79-1.18-12.64,1.48-15.64,7.12-3.98,7.47-1.98,18.32,4.65,25.24,3.33,3.48,12.72,10.76,28.01,3.42,2.57-1.23,5.17-2.94,7.72-5.11,2.33,2.27,4.91,4.68,7.84,7.12,10.83,9,18.69,14.9,30.82,14.9,3.95,0,8.36-.62,13.46-1.97l-3.31-12.55ZM116.83,187c-5.62,2.69-10,2.46-13.03-.7-3.13-3.27-3.61-8.2-2.57-10.16.14-.25.28-.52,1.03-.52.24,0,.55.03.93.09,7.87,1.38,12.7,4.37,17.63,8.77-1.37,1.06-2.71,1.9-3.99,2.52Z"/>
      <path class="cls-2" d="M228.2,172.85l-.03.5c-.24,4.25-.87,15.56,6.8,21.55,2.85,2.22,6.3,3.34,10.33,3.34,2.66,0,5.56-.49,8.7-1.46l-3.83-12.4c-3.4,1.05-6.09,1.16-7.2.29-1.06-.83-2.24-3.34-1.84-10.6l.03-.57c.14-2.68,1.92-41.38,1.92-41.38l.6-12.98s.67-14.25.7-15.01h-13c0,.19-.66,14.41-.66,14.41l-.6,12.99s-1.79,38.71-1.92,41.33Z"/>
      <path class="cls-2" d="M302.02,187.58c-3.34,1.68-4.85,1.66-5.21,1.62-.35-.46-2.09-3.43-.76-14.96,1.02-8.84,3.43-19.21,5.37-27.54l.18-.76-12.21-4.21c-.41.89-.76,1.96-1.1,3.25-4.22-3.1-9.75-5.96-15.69-5.88-4.09.03-10.06,1.46-15.27,8.09-8.9,11.33-9.48,29.48-1.27,39.64,5.99,7.41,15.27,9.05,24.9,4.35.82-.42,1.61-.89,2.35-1.41.9,4.15,2.65,7.44,5.52,9.69,2.33,1.84,5.04,2.75,8.12,2.75,3.24,0,6.88-1.01,10.9-3.03l-5.83-11.6ZM275.18,179.56c-5.95,2.91-8.18.15-9.02-.89-4-4.94-4.27-16.27,1.38-23.46,2.18-2.78,3.99-3.12,5.15-3.13h.07c4.13,0,9.42,4.31,12.35,7.36-2.01,8.16-5.15,17.7-9.93,20.12Z"/>
      <path class="cls-2" d="M183.82,104.13h-13.21c.03.16.66,3.37.72,3.81.46,3.1,1.02,12.51-7.89,17.59l6.43,11.28c15.06-8.59,15.71-25.13,13.95-32.68Z"/>
      <path class="cls-2" d="M371.88,193.76c-.05-.43-4.74-43.63,4.72-86.7l-12.63-2.99c-9.99,45.33-5.2,89.29-4.99,91.14l12.9-1.45Z"/>
      <path class="cls-2" d="M350.45,156.76c-3.57-6.67-11.37-11.07-19.54-11.07-.17,0-.35.01-.52.01-3.61.08-7.03.98-10.14,2.62.73-14.45,2.49-28.96,4.9-42.24l-12.84-1.96c-2.18,11.81-10.36,67.72-.63,87.59l1.3,2.65,2.85.77c3.89,1.04,7.37,1.48,10.48,1.48,10.95,0,17.23-5.48,20.3-9.35,7.44-9.37,7.78-23.13,3.84-30.5ZM336.44,179.19c-3.01,3.8-7.77,5.17-14.17,4.08-1.31-4.15-1.99-9.88-2.24-16.38,2.55-5.27,6.24-8.11,10.66-8.21,3.95-.07,7.16,2.04,8.31,4.2,1.48,2.76,1.62,11.04-2.56,16.31Z"/>
      <path class="cls-2" d="M193.07,181.28c-2.61,3.13-4.39,6.55-5.27,9.73-1.75,6.31-.18,12.32,4.18,16.06,3.34,2.86,7.85,4.21,13.5,4.05,6.7-.19,15-2.51,24.83-6.94l-5.33-11.83c-15.67,7.06-22.91,6.27-24.55,4.86-.67-.58-.22-2.39-.12-2.74,1.25-4.5,6.58-9.85,13.34-11.01l-2.13-12.81c-9.37,1.52-12.87-.71-13.08-1.69-.25-1.12,1.23-3.85,4.83-4.86,3.8-1.06,9.26-.08,11.04.39l3.36-12.54c-1-.27-9.99-2.57-17.9-.35-9.74,2.73-15.9,11.58-14.01,20.15.8,3.65,3.12,7.17,7.31,9.52Z"/>
      <path id="Union_27" data-name="Union 27" class="cls-3" d="M402.25,129.96l1.6-.44-.97-3.52-1.6.45c-.47-1.02-1.09-1.95-1.84-2.77l1.03-1.31-2.86-2.25-1.03,1.3c-.97-.54-2.03-.92-3.12-1.14l.05-1.66-3.63-.12-.06,1.66c-1.1.14-2.18.46-3.19.93l-.94-1.37-3,2.06.94,1.37c-.81.77-1.49,1.66-2.02,2.64l-1.57-.54-1.2,3.43,1.57.55c-.18,1.1-.2,2.22-.05,3.33l-1.59.49,1.07,3.48,1.59-.49c.5.99,1.15,1.91,1.92,2.71l-.99,1.33,2.93,2.17.99-1.34c.99.51,2.06.86,3.16,1.04v1.67h3.64v-1.66c.87-.15,1.72-.39,2.53-.74l.9,1.4,3.06-1.97-.9-1.4c.83-.74,1.54-1.61,2.11-2.57l1.55.59,1.31-3.4-1.56-.59c.22-1.09.28-2.21.17-3.32ZM391.28,134.6c-1.94,0-3.52-1.58-3.52-3.52,0-.97.4-1.85,1.03-2.48.64-.64,1.52-1.03,2.49-1.03,1.94,0,3.51,1.57,3.51,3.51s-1.57,3.52-3.51,3.52Z"/>
      <g>
        <path class="cls-1" d="M281.28,109.98c-1.27-.3-2.43-.08-3.46.44-.22.11-.43.23-.63.36-.17.18-.26.37-.3.55h0s-.41.42-.41.42c-.01-.07-.02-.15-.02-.23,0-.04.01-.09.01-.14,0,0,.01-.03.01-.05-.16.14-.32.28-.47.44-.3.3-.59.62-.84.97,0,0-.02.01-.02.02-.12.15-.23.31-.33.48-.02.01-.03.02-.03.03.03-.07.07-.15.11-.22.62-1.24,1.55-2.34,2.7-3.06.11-.08.23-.14.35-.21.08-.04.17-.09.26-.13h.01c.21-.09.43-.17.65-.24.76-.25,1.59-.33,2.46-.19.71.04,2.06-.49,1.89-1.32-.24-.47-1.03-.72-1.58-.89-.07-.02-.14-.03-.2-.05-.16-.04-.33-.08-.5-.12-.05-.01-.09-.02-.14-.03-.07-.01-.14-.02-.2-.03-1.09-.2-2.2-.25-3.28-.14-5.62.57-9.42,4.97-13.11,8.78-.29.29-.37.38-.84.85-.15.16-.65.37-1.36.59-1.46.49-3.84.98-5.99,1.26l.67-.16h.02s.01-.01.01-.01h.03v-.02c2.91-.76,5.78-2.15,6.1-2.46.36-.35.49-.61.77-.92.01-.02.03-.04.05-.07,2.34-2.72,5.55-6.08,9-7.83,2.63-1.24,5.87-1.67,8.81-.79.07.02.13.03.2.06.05.01.1.02.15.04.17.05.33.12.5.18.26.11.52.22.78.34,2.46,1.41.31,3.79-1.83,3.5Z"/>
        <path class="cls-1" d="M277.07,124.52c-.06,0-.11.02-.17.03-.13.02-.26.03-.39.04.03-.02.05-.05.07-.07h.03c.11,0,.21,0,.31,0,.05,0,.11,0,.15,0Z"/>
        <path class="cls-1" d="M265.87,127.19c-2.47.73-3.1.88-4.04,1.1h-.02s-.39.1-.39.1h-.04c-.16.05-.34.09-.53.14,1.95-.86,3.6-1.67,4.56-2.14.1.24.23.47.39.72.02.02.05.05.07.08Z"/>
        <path class="cls-2" d="M261.61,129.15c-.73.38-1.82.84-3.11,1.33-.39.14-.79.27-1.2.41-1.28.43-2.6.84-3.96,1.2-2.75.76-5.66,1.31-8.45,1.72-.63.09-1.27.17-1.9.25-4.54.57-8.98.85-13.03.96-.39,0-.77.02-1.15.03-4.91.1-9.17-.06-12.31-.41-1.27-.16-1.87-.27-1.87-.27l2.25-13.89c.4.03.79.07,1.13.1,1.61.16,3.49.22,5.27.25,1.79.04,3.55,0,5.25-.02.7-.02,1.4-.04,2.08-.07,2.62-.1,5.07-.26,7.34-.47,2.06-.19,3.97-.41,5.71-.66.68-.1,1.33-.2,1.95-.31.55-.1,1.07-.2,1.6-.29.49-.11.98-.22,1.45-.32.96-.23,1.9-.46,2.77-.72,2.25-.65,1.98-.57,2.49-.68.38-.08.69-.15.96-.2.53-.11.85-.13.96-.11.89.22.91.95.91.95l-.03.02h-.02s-.01.01-.01.01l-.67.16c.33,1.98.91,3.93,1.81,5.73.85,1.69,1.68,3.31,3.02,4.68.19-.05.37-.09.53-.13h.04s.39-.1.39-.1h.02s.41.63-.22.85Z"/>
        <polygon class="cls-1" points="256.75 117.93 256.75 117.94 256.72 117.95 256.75 117.93"/>
        <path class="cls-5" d="M317.32,94.48c-1.38,2.48-3.39,4.56-5.83,6.03h0s-3.89-3.76-3.89-3.76h0c.11-1.38-.07-2.46-.63-3.15-1.01.62-2.21.66-2.97.03l-13.51,13.96-1.66,3.4c-.55.69-1.11,1.38-1.68,2.06-.02.03-.05.05-.07.08-.07-.05-.13-.11-.2-.16-.18-.13-.36-.26-.56-.37-.04-.02-.07-.04-.11-.06-.85-.48-1.82-.8-2.61-.94-1.33-.19-4.13-.06-3.82,1.89.04.14.09.27.16.39l-.34-.07-1.55-.23c-.42-.03-.84-.04-1.26-.01-2.33.26-3.27,2.08-1.18,3.49-.8.06-1.47.24-1.94.56-1.2.91-.66,2.66.55,3.04-.39.06-.76.17-1.1.34-1.16.78-.64,2.3.32,2.8.79.55,1.76.84,2.74.82h.06c.1,0,.19-.02.28-.03l-.36.36c-.04.05-.08.09-.13.13-.09.09-.17.17-.26.25l-.48.48c-.32.31-.64.61-.96.92-.15.15-.31.3-.47.45-.44.42-.88.84-1.32,1.24l-1.39,1.26c-.32.29-.85.36-1.49.21-.87-.17-1.93-.74-2.89-1.66-.36-.35-.66-.7-.89-1.04-.02-.03-.05-.06-.07-.08-.16-.25-.29-.48-.39-.72-.03-.06-.06-.12-.09-.18-.01-.04-.03-.07-.04-.1-.13-.34-.2-.66-.21-.94-.01-.41.08-.75.28-.98.59-.72,1.38-1.68,1.61-1.96,2.6-3.13,5.31-6.14,8.13-9.06,0-.01.01-.02.03-.03.39-.4.77-.8,1.16-1.19l.61-.61.49-.49.26-.26c.06-.05.12-.11.18-.17,1.03-.52,2.19-.74,3.46-.44,2.14.29,4.29-2.09,1.83-3.5-.26-.12-.52-.23-.78-.34.1-.09.21-.19.32-.29.12-.12.24-.23.37-.35l3.48-1.69,13.54-14c-.91-.92-.74-2.62.42-3.81l1.15-1.19c-3.04-2.65-7.61-3.57-10.87-1.22l-1.26.92-.65-.66,1.3-1.34c4.07-4.2,10.78-4.31,14.97-.24l1.16,1.11,1.11,1.07,1.13,1.09,1.69,1.65h0c.63.73.67,1.83.15,2.84.66.39,1.67.63,3.09.67l3.89,3.78Z"/>
        <path class="cls-1" d="M287.07,113.13c-.07-.05-.13-.11-.2-.16-.18-.13-.36-.26-.56-.37-.04-.02-.07-.04-.11-.06-.85-.48-1.82-.8-2.61-.94-1.33-.19-4.13-.06-3.82,1.89.04.14.09.27.16.39l-.34-.07-1.55-.23c-.42-.03-.84-.04-1.26-.01-2.33.26-3.27,2.08-1.18,3.49-.8.06-1.47.24-1.94.56-1.2.91-.66,2.66.55,3.04-.39.06-.76.17-1.1.34-1.16.78-.64,2.3.32,2.8.79.55,1.76.84,2.74.82h.06c.1,0,.19-.02.28-.03.03-.02.05-.05.07-.07-.07-.01-.15-.02-.23-.03-.02,0-.04-.01-.06-.01-.38-.06-.8-.17-1.19-.32-.21-.08-.41-.17-.6-.27-.14-.07-.27-.16-.39-.24-.05-.03-.09-.05-.12-.08-.07-.05-.13-.11-.19-.17-.06-.06-.12-.12-.17-.16l-.11-.11s-.05-.09-.07-.12c-.04-.04-.07-.09-.1-.15-.04-.06-.07-.13-.09-.2-.03-.06-.05-.11-.05-.17-.03-.12-.04-.24-.03-.36.11-.41.57-.62,1.05-.58.29,0,.6.02.9.06.11.01.22.03.32.05.61.11,1.22.3,1.8.56.25.11.5.23.75.36.02.01.04.02.06.03.09.05.18.11.27.16.05.03.1.06.15.09.33.2.65.41.94.64.04.04.08.07.12.11.03.03.05.05.06.07.02.02.03.04.04.07.06.09.05.17-.02.27-.05.08-.13.16-.23.27-.73.66-1.97.85-3.19.99-.13.02-.25.04-.38.05h-.06l-.48.48c-.32.31-.64.61-.96.92.17-.01.34-.02.51-.03.35-.02.7-.05,1.05-.09,1.51-.19,3.1-.33,4.36-1.43.54-.45.76-1.08.65-1.64.3-.03.57-.12.84-.23,1.05-.43,2.24-1.53,2.06-2.68.27.02.54.03.82-.02,1.63-.22,2.17-1.87,1.62-3.17.87-.14,1.85-.63,2.06-1.57.18-1.13-.36-2.05-1.22-2.74ZM282.55,121.61c-.06.11-.13.23-.21.33-.01.02-.02.03-.03.04-.05.07-.1.13-.16.19-.21.22-.46.43-.71.59-.11.08-.23.15-.35.2-.12.06-.24.11-.35.15h0c-.12-.21-.29-.4-.52-.55-.09-.06-.17-.12-.27-.18-.09-.07-.18-.13-.28-.18-.12-.08-.24-.16-.37-.23-.02-.01-.05-.03-.07-.04-.02-.01-.03-.02-.05-.03-.09-.05-.19-.1-.29-.15-.01-.01-.02-.01-.04-.02-.02-.01-.04-.02-.06-.03-.17-.09-.34-.17-.53-.25-.17-.08-.35-.16-.54-.23h-.01c-.19-.07-.38-.14-.57-.2-.4-.13-.81-.24-1.22-.3-.17-.03-.33-.06-.5-.07-.19-.02-.38-.03-.57-.03s-.37,0-.56.03c-.76-.67-.98-1.78-.1-2.28.8-.38,2.79-.19,4.67.3.34.09.69.2,1.02.31.16.05.32.11.48.17.17.06.34.13.5.2.01,0,.02,0,.03.02.08.03.16.07.23.1,0,0,.01,0,.01.01.08.04.16.08.24.12,0,0,.01,0,.02,0,.35.19.66.4.89.62.24.22.4.45.46.69,0,.23-.07.47-.19.69ZM285.23,119.42c-.3.48-.93.74-1.52.89-.03-.08-.07-.17-.12-.24-.05-.11-.1-.21-.17-.31-.06-.09-.12-.18-.2-.26-.04-.05-.08-.1-.14-.15-.06-.07-.12-.14-.2-.19l-.05-.05c-.05-.06-.11-.1-.17-.14-.07-.06-.14-.11-.22-.16-.08-.06-.15-.1-.23-.15h-.01c-.15-.1-.31-.2-.48-.29h-.01c-.08-.04-.16-.08-.23-.12-.08-.04-.16-.07-.24-.11-.11-.06-.23-.11-.35-.15-.12-.05-.24-.1-.37-.14-.05-.02-.09-.04-.14-.05-.09-.04-.17-.06-.26-.09-.12-.04-.25-.08-.37-.11-.13-.04-.26-.08-.4-.11-.13-.04-.26-.07-.4-.1-.18-.04-.36-.08-.53-.11-.23-.05-.45-.08-.67-.11-.27-.04-.54-.06-.8-.08h-.02c-.12-.01-.24-.02-.36-.02-.31-.02-.61-.02-.89,0-1.11-1.56-.8-2.32,1.19-2.44,1.55-.03,3.26.59,4.84,1.18.22.09.43.17.65.25.15.05.31.1.48.17.16.06.33.14.5.22.09.04.17.08.26.14.08.03.16.07.24.12.03.02.05.04.08.06.14.09.28.19.41.29.07.05.14.11.2.18.07.05.14.12.2.19.13.13.24.27.33.42.04.05.07.11.1.17.02.03.04.07.05.1.02.05.04.09.05.14.02.06.04.11.05.17.09.31.06.64-.08.99ZM287.39,115.85s-.03.1-.05.15c-.04.09-.09.19-.16.28-.03.05-.07.1-.12.15-.04.05-.09.1-.14.15h0c-.07.07-.14.12-.23.18-.08.07-.17.13-.28.19-.1.07-.21.13-.33.19l-.03-.06c-.15-.28-.33-.52-.54-.74s-.43-.42-.68-.59c-.04-.03-.07-.06-.11-.09-.1-.07-.2-.14-.31-.2-.01-.01-.03-.02-.04-.02-.06-.04-.12-.08-.19-.1-.05-.03-.1-.06-.15-.08-.17-.09-.34-.16-.52-.23-.03-.01-.07-.03-.11-.04-.18-.07-.37-.13-.56-.19-.9-.3-1.81-.63-2.73-.87-.26-1.08.49-1.5,1.66-1.51.22-.02.46-.01.73.02.16.02.33.04.51.08h.01c.09.02.2.05.3.06.03.01.05.02.08.02t.02,0s.02.01.03.01c.07.02.14.04.22.06.22.06.45.14.67.22.29.11.58.23.85.37.01.01.02.01.03.01.13.07.26.13.37.2.01.01.02.01.03.02.01,0,.01.01.02.01.02.01.05.02.07.04.11.06.22.13.32.2.05.03.1.07.15.1.01,0,.02.02.03.02.05.03.1.07.14.11.04.03.08.05.11.08.08.07.15.13.22.2.08.07.15.14.21.21.11.12.21.24.29.37.01.02.03.04.04.07.04.06.07.12.09.18.03.07.06.14.07.21.01.04.02.07.02.11.01.06.02.12.02.18,0,.09-.01.17-.03.26Z"/>
        <g>
          <path class="cls-4" d="M279.39,124.29c-.73.66-1.97.85-3.19.99-.13.02-.25.04-.38.05h-.06c.09-.08.17-.16.26-.25.05-.04.09-.08.13-.13l.36-.36c.13,0,.26-.02.39-.04.06,0,.11-.02.17-.03-.04,0-.1,0-.15,0-.1,0-.2,0-.31,0h-.03c-.07,0-.15-.02-.23-.03-.02,0-.04,0-.06,0-.38-.06-.8-.17-1.19-.32-.42-.16-.81-.36-1.12-.6-.14-.11-.26-.22-.36-.33-.08-.07-.14-.15-.18-.22-.04-.05-.07-.1-.1-.16-.04-.06-.07-.13-.09-.2-.03-.06-.05-.11-.05-.17-.03-.12-.04-.24-.03-.36.11-.41.57-.62,1.05-.58.3,0,.61.02.91.06.11,0,.22.03.32.05.61.11,1.22.3,1.8.56.25.11.5.23.75.36.02,0,.04.02.06.03.09.05.18.11.27.16.05.03.1.06.15.09.33.2.65.41.94.64.38.34.32.44-.03.8Z"/>
          <path class="cls-4" d="M283.22,107.9c.17.83-1.18,1.36-1.89,1.32-.87-.14-1.7-.06-2.46.19-.22.07-.44.15-.65.24h-.01c-.09.04-.18.09-.26.13-.12.07-.24.13-.35.21-1.15.72-2.08,1.82-2.7,3.06-.04.07-.08.15-.11.22,0-.01.01-.02.03-.03.1-.17.21-.33.33-.48,0-.01.02-.02.02-.02.25-.35.54-.67.84-.97.15-.16.31-.3.47-.44,0,.02-.01.04-.01.05,0,.05-.01.1-.01.14,0,.08.01.16.02.23l-.2.2c-.39.39-.77.79-1.16,1.19-.02,0-.03.02-.03.03-2.82,2.92-5.53,5.93-8.13,9.06-.23.28-1.02,1.24-1.61,1.96-.2.23-.29.57-.28.98.01.28.08.6.21.94.01.03.03.06.04.1-.1,0-.19.02-.31.03-.6.04-1.42.03-2.27-.11-1.72-.31-3.53-1.25-4.15-3.52-.87-3.14,1.73-4.86,3.42-5.75.71-.22,1.21-.43,1.36-.59.47-.47.55-.56.84-.85,3.69-3.81,7.49-8.21,13.11-8.78,1.08-.11,2.19-.06,3.28.14.06.01.13.02.2.03.05.01.09.02.14.03.17.04.34.08.5.12.06.02.13.03.2.05.55.17,1.34.42,1.58.89Z"/>
          <path class="cls-4" d="M287.42,115.59c0,.09,0,.17-.03.26,0,.05-.03.1-.05.15-.04.1-.09.2-.16.29-.03.05-.07.1-.12.15-.04.05-.09.1-.14.15-.07.06-.14.12-.23.18-.08.07-.17.13-.28.19-.1.07-.21.13-.33.19l-.03-.06c-.3-.56-.73-.99-1.22-1.34-.04-.03-.07-.06-.11-.09-.1-.07-.2-.14-.31-.2,0,0-.03-.02-.04-.02-.06-.04-.12-.08-.19-.1-.05-.03-.1-.06-.15-.08-.17-.09-.34-.16-.52-.23-.03,0-.07-.03-.11-.04-.18-.07-.37-.13-.56-.19-.9-.3-1.82-.63-2.74-.87-.26-1.08.49-1.5,1.67-1.51.22-.02.46,0,.73.02.16.02.33.04.51.08h0c.09.02.2.05.3.06.03,0,.05.02.08.02t.02,0s.02,0,.03,0c.07.02.14.04.22.06.22.06.45.14.67.22.29.11.58.23.85.37,0,0,.02,0,.03,0,.13.07.26.13.37.2,0,0,.02,0,.03.02,0,0,0,0,.02,0,.02,0,.05.02.07.04.11.06.22.13.32.2.05.03.1.07.15.1,0,0,.02.02.03.02.05.03.1.07.14.11.04.03.08.05.11.08.08.07.15.13.22.2.08.07.15.14.21.21.11.12.21.24.29.37,0,.02.03.04.04.07.04.06.07.12.09.18.03.07.06.14.07.21,0,.04.02.07.02.11,0,.06.02.12.02.18Z"/>
          <path class="cls-4" d="M285.23,119.42c-.3.48-.93.74-1.52.89-.03-.08-.07-.17-.12-.24-.05-.11-.1-.21-.17-.31-.06-.09-.12-.18-.2-.26-.04-.05-.08-.1-.14-.15-.06-.07-.12-.14-.2-.19l-.05-.05c-.05-.06-.11-.1-.17-.14-.07-.06-.14-.11-.22-.16-.08-.06-.15-.1-.23-.15h0c-.15-.1-.31-.2-.48-.29h0c-.08-.04-.16-.08-.24-.12-.08-.04-.16-.07-.24-.11-.11-.06-.23-.11-.35-.15-.12-.05-.24-.1-.37-.14-.05-.02-.09-.04-.14-.05-.09-.04-.17-.06-.26-.09-.12-.04-.25-.08-.37-.11-.13-.04-.26-.08-.4-.11-.13-.04-.26-.07-.4-.1-.18-.04-.36-.08-.53-.11-.23-.05-.45-.08-.67-.11-.27-.04-.54-.06-.8-.08h-.02c-.12,0-.24-.02-.36-.02-.31-.02-.61-.02-.89,0-1.11-1.57-.8-2.33,1.19-2.45,1.77-.03,3.73.78,5.49,1.43.15.05.31.1.48.17.16.06.33.14.5.22.09.04.17.08.26.14.08.03.16.08.24.13.03.02.05.04.08.06.14.09.28.19.41.29.07.05.14.11.2.18.07.05.14.12.2.19.13.13.24.27.33.42.04.05.07.11.1.17.02.03.04.07.05.1.02.05.04.09.05.14.02.06.04.11.05.17.09.31.06.64-.08.99Z"/>
          <path class="cls-4" d="M282.74,120.92c0,.93-1.09,1.88-2.01,2.19-.12-.21-.29-.4-.52-.55-.09-.06-.17-.12-.27-.18-.09-.07-.18-.13-.28-.18-.12-.08-.24-.16-.37-.23-.02,0-.05-.03-.07-.04-.02,0-.03-.02-.05-.03-.09-.05-.19-.1-.29-.15,0,0-.02,0-.04-.02s-.04-.02-.06-.03c-.17-.09-.34-.17-.53-.25-.17-.08-.35-.16-.54-.23h0c-.19-.07-.38-.14-.57-.2-.4-.13-.81-.24-1.22-.3-.17-.03-.33-.06-.5-.07-.19-.02-.38-.03-.57-.03s-.38,0-.57.03c-.76-.67-.98-1.78-.1-2.28.81-.38,2.8-.19,4.67.3.34.09.69.2,1.02.31.16.05.32.11.48.17.17.06.34.13.5.2,0,0,.02,0,.03.02.08.03.16.07.23.1,0,0,0,0,0,0,.08.04.16.08.24.12,0,0,0,0,.02,0,.36.19.67.4.9.62.24.22.4.45.46.69Z"/>
        </g>
      </g>
    </g>
  </g>
  <g>
    <path class="cls-2" d="M102.16,347.09c-.34.66-.75,1.22-1.25,1.67-.49.44-1.07.78-1.72,1.01-.65.23-1.38.34-2.18.34-.66,0-1.27-.08-1.84-.23-.57-.15-1.09-.37-1.56-.67-.47-.3-.89-.66-1.25-1.09-.36-.43-.67-.93-.92-1.48-.25-.56-.44-1.18-.57-1.85s-.19-1.4-.19-2.18.06-1.51.19-2.18c.13-.68.32-1.29.57-1.85s.56-1.05.92-1.48c.36-.43.78-.8,1.25-1.09.47-.3.99-.52,1.56-.68.57-.15,1.18-.22,1.84-.22.8,0,1.53.11,2.18.34.65.22,1.23.56,1.72,1.01.5.45.91,1,1.25,1.67.34.66.59,1.43.75,2.3h2.87c-.2-1.25-.56-2.37-1.06-3.35-.5-.99-1.13-1.83-1.88-2.51-.76-.69-1.63-1.21-2.61-1.58-.98-.36-2.06-.54-3.23-.54-.91,0-1.77.11-2.57.33-.81.22-1.56.54-2.24.96s-1.29.92-1.83,1.52c-.55.6-1.01,1.27-1.38,2.03-.38.75-.67,1.57-.87,2.46-.2.9-.3,1.85-.3,2.86s.1,1.96.3,2.85c.2.9.49,1.72.87,2.47.37.75.83,1.43,1.38,2.03.54.6,1.15,1.1,1.83,1.52.68.41,1.43.73,2.24.96.8.22,1.66.33,2.57.33,1.17,0,2.25-.18,3.23-.54.98-.37,1.85-.89,2.61-1.58.75-.69,1.38-1.52,1.88-2.51.5-.99.86-2.1,1.06-3.35h-2.87c-.16.87-.41,1.64-.75,2.3Z"/>
    <path class="cls-2" d="M117.23,337.32c-.8,0-1.52.11-2.17.34-.64.22-1.21.54-1.7.96-.49.42-.9.94-1.23,1.54-.32.59-.55,1.24-.72,1.97v-4.81h-2.76v15.04h2.76v-7.45c0-.84.1-1.57.29-2.19.2-.62.52-1.13.97-1.54.46-.41,1.05-.72,1.8-.92s1.67-.3,2.77-.3h.67v-2.64h-.68Z"/>
    <path class="cls-2" d="M133.32,341.52c-.33-.96-.8-1.79-1.42-2.47-.61-.68-1.35-1.21-2.22-1.58-.87-.37-1.84-.56-2.92-.56s-2.09.19-2.98.57c-.9.38-1.67.92-2.31,1.61-.64.7-1.14,1.53-1.49,2.5-.35.97-.52,2.05-.52,3.23s.17,2.27.53,3.25c.35.98.85,1.82,1.5,2.51.65.7,1.43,1.24,2.33,1.62.91.38,1.92.57,3.03.57.88,0,1.69-.12,2.45-.37.76-.24,1.43-.6,2.03-1.06.59-.47,1.09-1.03,1.51-1.7.41-.67.72-1.42.91-2.26h-2.76c-.18.47-.4.89-.67,1.25-.26.37-.56.67-.9.91-.34.24-.71.43-1.13.55-.42.12-.88.18-1.37.18-.73,0-1.38-.12-1.96-.37s-1.07-.61-1.48-1.08c-.4-.46-.72-1.03-.94-1.69-.13-.4-.22-.82-.26-1.28h11.49c.02-.2.03-.39.04-.56s.01-.34.01-.51c0-1.2-.17-2.29-.5-3.26ZM122.33,343.46c.05-.31.12-.61.21-.89.21-.67.51-1.24.9-1.71.4-.47.87-.83,1.43-1.07.57-.25,1.2-.38,1.9-.38s1.3.12,1.83.36c.53.24.97.59,1.34,1.06.36.46.64,1.03.83,1.71.08.29.14.59.18.92h-8.62ZM127.97,331.94l-2.14,4.36h1.91l2.96-4.36h-2.73Z"/>
    <path class="cls-2" d="M149.74,340.7c-.33-.81-.8-1.49-1.41-2.05-.62-.56-1.37-.99-2.25-1.29-.88-.3-1.88-.45-2.99-.45-1.05,0-2,.14-2.85.4-.84.26-1.56.64-2.15,1.13-.6.49-1.05,1.09-1.37,1.78-.32.7-.48,1.48-.48,2.34h2.76c0-.47.08-.9.24-1.29.17-.39.41-.72.74-.99.33-.28.75-.49,1.26-.64.5-.15,1.11-.22,1.8-.22s1.3.09,1.84.28c.55.18,1.01.45,1.39.8.39.35.68.77.89,1.27.2.5.31,1.05.31,1.67v.35h-5.81c-.91,0-1.72.1-2.45.31-.72.2-1.33.49-1.84.88-.51.38-.9.85-1.17,1.4-.27.55-.4,1.17-.4,1.85s.13,1.31.39,1.86c.26.56.63,1.04,1.11,1.44.48.39,1.06.7,1.73.92.67.21,1.42.32,2.24.32.54,0,1.04-.05,1.53-.14.48-.09.93-.23,1.35-.41s.81-.4,1.17-.66c.35-.26.67-.56.95-.9.29-.33.53-.7.73-1.11.2-.38.36-.8.47-1.25v4.06h2.76v-8.92c0-1.02-.16-1.94-.49-2.74ZM147.47,346.52c0,.38-.06.73-.18,1.07-.12.33-.3.64-.53.93-.22.28-.5.54-.82.77-.32.22-.69.42-1.09.57-.41.16-.85.29-1.32.37-.48.09-.98.13-1.51.13-.57,0-1.07-.05-1.5-.14-.43-.1-.8-.24-1.09-.43-.3-.19-.52-.42-.68-.7-.15-.27-.22-.59-.22-.94s.06-.63.2-.88c.13-.26.33-.47.59-.64.26-.18.59-.31.97-.39.39-.09.84-.13,1.35-.13h5.83v.41Z"/>
    <path class="cls-2" d="M152.28,337.32v2.32h9.78v-2.32h-9.78ZM160.54,350.2c-.43.07-.81.11-1.12.11-.41,0-.76-.06-1.05-.18-.29-.12-.54-.3-.72-.53-.19-.24-.33-.55-.43-.91-.09-.37-.14-.8-.14-1.3v-13.53h-2.76v13.52c0,.89.1,1.66.3,2.33.21.67.5,1.23.89,1.69.4.45.88.79,1.45,1.02.58.23,1.24.34,1.99.34.46,0,.95-.04,1.46-.12.52-.09,1.07-.22,1.65-.39v-2.39c-.58.15-1.09.27-1.52.34Z"/>
    <path class="cls-2" d="M177.6,341.52c-.33-.96-.81-1.79-1.42-2.47-.61-.68-1.36-1.21-2.22-1.58-.87-.37-1.85-.56-2.92-.56s-2.09.19-2.99.57c-.89.38-1.66.92-2.31,1.61-.64.7-1.13,1.53-1.48,2.5s-.53,2.05-.53,3.23.18,2.27.53,3.25c.36.98.86,1.82,1.51,2.51.65.7,1.42,1.24,2.33,1.62.91.38,1.92.57,3.03.57.87,0,1.69-.12,2.45-.37.75-.24,1.43-.6,2.02-1.06.6-.47,1.1-1.03,1.51-1.7.42-.67.72-1.42.92-2.26h-2.76c-.19.47-.41.89-.67,1.25-.26.37-.56.67-.9.91s-.72.43-1.14.55c-.41.12-.87.18-1.37.18-.72,0-1.37-.12-1.95-.37-.58-.25-1.07-.61-1.48-1.08-.41-.46-.72-1.03-.94-1.69-.13-.4-.22-.82-.27-1.28h11.5c.02-.2.03-.39.04-.56,0-.17.01-.34.01-.51,0-1.2-.17-2.29-.5-3.26ZM166.6,343.46c.05-.31.12-.61.21-.89.21-.67.52-1.24.91-1.71.39-.47.87-.83,1.43-1.07.56-.25,1.2-.38,1.9-.38s1.3.12,1.82.36c.53.24.98.59,1.34,1.06.37.46.65,1.03.83,1.71.08.29.15.59.19.92h-8.63Z"/>
    <path class="cls-2" d="M191.61,337.32v8.14c0,.51-.05.98-.14,1.41-.09.44-.22.83-.4,1.19-.17.36-.38.67-.64.95-.25.27-.54.51-.87.69-.33.19-.7.33-1.1.43-.39.1-.82.14-1.29.14-.64,0-1.21-.09-1.69-.28-.48-.19-.88-.48-1.21-.86-.32-.38-.56-.85-.72-1.42-.16-.56-.24-1.22-.24-1.98v-8.41h-2.76v8.41c0,1.09.12,2.07.38,2.95.25.87.6,1.6,1.07,2.21.47.61,1.04,1.07,1.72,1.4.68.32,1.45.48,2.31.48.7,0,1.36-.11,1.96-.33.61-.23,1.15-.55,1.63-.96.48-.42.89-.92,1.23-1.52.33-.58.58-1.24.76-1.96v4.36h2.76v-15.04h-2.76Z"/>
    <path class="cls-2" d="M205.82,337.32c-.8,0-1.53.11-2.17.34-.65.22-1.21.54-1.7.96-.49.42-.9.94-1.23,1.54-.32.59-.56,1.24-.73,1.97v-4.81h-2.76v15.04h2.76v-7.45c0-.84.1-1.57.3-2.19.19-.62.52-1.13.97-1.54.45-.41,1.05-.72,1.8-.92.74-.2,1.66-.3,2.77-.3h.67v-2.64h-.68Z"/>
    <path class="cls-2" d="M227.42,332.17v9.8c-.19-.75-.45-1.44-.79-2.05-.35-.63-.76-1.17-1.24-1.61-.48-.45-1.02-.79-1.62-1.03-.6-.25-1.24-.37-1.93-.37-.62,0-1.21.09-1.76.27s-1.07.43-1.54.76c-.47.33-.89.73-1.27,1.2-.38.48-.7,1.01-.97,1.59-.26.59-.47,1.23-.61,1.92-.14.69-.21,1.42-.21,2.19s.07,1.5.21,2.19.35,1.33.61,1.92c.27.59.59,1.12.97,1.59s.8.87,1.27,1.2c.47.33.99.59,1.54.76.55.18,1.14.27,1.76.27.69,0,1.33-.12,1.93-.36s1.14-.58,1.62-1.03c.48-.45.89-.99,1.24-1.62.34-.61.6-1.3.79-2.05v4.65h2.76v-20.19h-2.76ZM227.28,346.44c-.1.49-.24.94-.42,1.35-.18.41-.41.77-.68,1.09-.26.32-.57.58-.91.8-.35.21-.73.38-1.14.49-.42.12-.87.17-1.35.17-.74,0-1.39-.12-1.95-.36-.56-.23-1.04-.59-1.42-1.05-.39-.47-.68-1.04-.88-1.73-.19-.68-.29-1.47-.29-2.36s.1-1.68.29-2.36c.2-.69.49-1.26.88-1.73.38-.46.85-.81,1.42-1.05.56-.24,1.21-.36,1.95-.36.48,0,.93.06,1.35.17.41.12.79.28,1.14.5.34.21.65.48.91.79.27.32.5.68.68,1.09.18.41.32.86.42,1.35.09.49.14,1.03.14,1.6s-.05,1.1-.14,1.6Z"/>
    <path class="cls-2" d="M233.11,332.86l.4,9.11h2.04l.43-9.11h-2.87Z"/>
    <path class="cls-2" d="M251.83,341.52c-.34-.96-.81-1.79-1.42-2.47-.62-.68-1.36-1.21-2.23-1.58-.86-.37-1.84-.56-2.91-.56s-2.09.19-2.99.57c-.9.38-1.67.92-2.31,1.61-.64.7-1.13,1.53-1.48,2.5-.35.97-.53,2.05-.53,3.23s.18,2.27.53,3.25c.36.98.86,1.82,1.51,2.51.65.7,1.42,1.24,2.33,1.62.91.38,1.92.57,3.02.57.88,0,1.7-.12,2.46-.37.75-.24,1.43-.6,2.02-1.06.6-.47,1.1-1.03,1.51-1.7.42-.67.72-1.42.92-2.26h-2.77c-.18.47-.4.89-.66,1.25-.26.37-.56.67-.9.91-.34.24-.72.43-1.14.55-.42.12-.87.18-1.37.18-.72,0-1.37-.12-1.95-.37-.58-.25-1.07-.61-1.48-1.08-.41-.46-.72-1.03-.94-1.69-.13-.4-.22-.82-.27-1.28h11.5c.02-.2.03-.39.03-.56.01-.17.01-.34.01-.51,0-1.2-.16-2.29-.49-3.26ZM240.83,343.46c.05-.31.12-.61.21-.89.21-.67.51-1.24.91-1.71.39-.47.87-.83,1.43-1.07.56-.25,1.2-.38,1.9-.38s1.29.12,1.82.36c.53.24.98.59,1.34,1.06.37.46.64,1.03.83,1.71.08.29.15.59.19.92h-8.63Z"/>
    <path class="cls-2" d="M262.29,344.71l5.52-7.39h-3.11l-4.33,5.93-4.44-5.93h-3.27l5.59,7.43-5.89,7.61h3.1l4.71-6.16,4.84,6.16h3.27l-5.99-7.65Z"/>
    <path class="cls-2" d="M284.99,342.65c-.14-.69-.35-1.33-.61-1.92-.26-.58-.59-1.11-.97-1.59-.37-.47-.8-.87-1.27-1.2s-.98-.58-1.54-.76c-.55-.18-1.14-.27-1.76-.27-.69,0-1.33.12-1.93.37-.6.24-1.14.58-1.62,1.03-.48.44-.89.98-1.24,1.61-.34.61-.6,1.3-.79,2.05v-4.65h-2.76v20.19h2.76v-9.8c.19.75.45,1.44.79,2.05.35.63.76,1.17,1.24,1.62.48.45,1.02.79,1.62,1.03.6.24,1.24.36,1.93.36.62,0,1.21-.09,1.76-.27.56-.17,1.07-.43,1.54-.76s.9-.73,1.27-1.2c.38-.47.71-1,.97-1.59s.47-1.23.61-1.92c.14-.69.21-1.42.21-2.19s-.07-1.5-.21-2.19ZM282.15,347.2c-.2.69-.49,1.26-.88,1.73-.38.46-.85.82-1.42,1.05-.56.24-1.21.36-1.95.36-.48,0-.93-.05-1.35-.17-.41-.11-.79-.28-1.14-.49-.34-.22-.64-.48-.91-.8-.27-.32-.5-.68-.68-1.09-.18-.41-.32-.86-.41-1.35-.1-.5-.15-1.03-.15-1.6s.05-1.11.15-1.6c.09-.49.23-.94.41-1.35.18-.41.41-.77.68-1.09.27-.31.57-.58.91-.79.35-.22.73-.38,1.14-.5.42-.11.87-.17,1.35-.17.74,0,1.39.12,1.95.36.57.24,1.04.59,1.43,1.05.38.47.67,1.04.87,1.73.19.68.29,1.47.29,2.36s-.1,1.68-.29,2.36Z"/>
    <path class="cls-2" d="M301.25,341.52c-.33-.96-.8-1.79-1.42-2.47-.61-.68-1.35-1.21-2.22-1.58-.87-.37-1.84-.56-2.92-.56s-2.08.19-2.98.57c-.9.38-1.67.92-2.31,1.61-.64.7-1.14,1.53-1.49,2.5-.35.97-.52,2.05-.52,3.23s.17,2.27.53,3.25c.35.98.85,1.82,1.5,2.51.65.7,1.43,1.24,2.33,1.62.91.38,1.92.57,3.03.57.88,0,1.7-.12,2.45-.37.76-.24,1.43-.6,2.03-1.06.59-.47,1.09-1.03,1.51-1.7.41-.67.72-1.42.91-2.26h-2.76c-.18.47-.4.89-.66,1.25-.27.37-.57.67-.91.91-.33.24-.71.43-1.13.55-.42.12-.88.18-1.37.18-.73,0-1.38-.12-1.96-.37s-1.07-.61-1.48-1.08c-.4-.46-.72-1.03-.93-1.69-.13-.4-.22-.82-.27-1.28h11.49c.02-.2.03-.39.04-.56.01-.17.01-.34.01-.51,0-1.2-.17-2.29-.5-3.26ZM290.26,343.46c.05-.31.12-.61.21-.89.21-.67.51-1.24.9-1.71.4-.47.87-.83,1.44-1.07.56-.25,1.19-.38,1.89-.38s1.3.12,1.83.36c.53.24.98.59,1.34,1.06.36.46.64,1.03.83,1.71.08.29.14.59.18.92h-8.62ZM295.91,331.94l-2.15,4.36h1.91l2.96-4.36h-2.72Z"/>
    <path class="cls-2" d="M312.86,337.32c-.8,0-1.52.11-2.17.34-.64.22-1.21.54-1.7.96-.49.42-.9.94-1.23,1.54-.32.6-.57,1.27-.73,2.01v-4.85h-2.76v15.04h2.76v-7.45c0-.84.1-1.57.3-2.19.19-.62.52-1.13.97-1.54.45-.41,1.05-.72,1.8-.92.74-.2,1.67-.3,2.77-.3h.67v-2.64h-.68Z"/>
    <path class="cls-2" d="M315.97,332.17v3.41h2.9v-3.41h-2.9ZM316.04,337.32v15.04h2.76v-15.04h-2.76Z"/>
    <path class="cls-2" d="M335.19,341.52c-.33-.96-.81-1.79-1.42-2.47-.61-.68-1.36-1.21-2.22-1.58-.87-.37-1.85-.56-2.92-.56s-2.09.19-2.99.57c-.89.38-1.66.92-2.31,1.61-.64.7-1.13,1.53-1.48,2.5-.35.97-.53,2.05-.53,3.23s.18,2.27.53,3.25c.36.98.86,1.82,1.51,2.51.65.7,1.42,1.24,2.33,1.62.91.38,1.92.57,3.03.57.87,0,1.69-.12,2.45-.37.75-.24,1.43-.6,2.02-1.06.6-.47,1.1-1.03,1.51-1.7.42-.67.72-1.42.92-2.26h-2.76c-.19.47-.41.89-.67,1.25-.26.37-.56.67-.9.91-.34.24-.72.43-1.14.55-.41.12-.87.18-1.37.18-.72,0-1.37-.12-1.95-.37-.58-.25-1.07-.61-1.48-1.08-.41-.46-.72-1.03-.94-1.69-.13-.4-.22-.82-.26-1.28h11.49c.02-.2.03-.39.04-.56,0-.17.01-.34.01-.51,0-1.2-.17-2.29-.5-3.26ZM324.2,343.46c.04-.31.11-.61.2-.89.21-.67.52-1.24.91-1.71.39-.47.87-.83,1.43-1.07.56-.25,1.2-.38,1.9-.38s1.3.12,1.83.36c.53.24.97.59,1.34,1.06.36.46.64,1.03.82,1.71.08.29.15.59.19.92h-8.62Z"/>
    <path class="cls-2" d="M351.65,341.01c-.25-.87-.61-1.61-1.08-2.22-.46-.6-1.04-1.07-1.71-1.39-.68-.32-1.45-.49-2.31-.49-.7,0-1.36.12-1.97.34-.6.22-1.15.54-1.63.96-.48.41-.89.92-1.22,1.52-.33.57-.58,1.23-.76,1.96v-4.37h-2.76v15.04h2.76v-8.14c0-.5.05-.98.14-1.41.09-.43.22-.83.39-1.19.18-.35.39-.67.64-.94.26-.28.55-.51.88-.7.33-.18.69-.33,1.09-.42.4-.1.83-.15,1.29-.15.65,0,1.21.1,1.7.29.48.19.88.47,1.2.85.33.38.57.85.73,1.42.16.57.23,1.23.23,1.98v8.41h2.77v-8.41c0-1.09-.13-2.07-.38-2.94Z"/>
    <path class="cls-2" d="M365.56,348.09c-.21.43-.49.81-.83,1.14-.34.32-.76.58-1.23.76-.49.19-1.04.28-1.66.28-.71,0-1.35-.12-1.92-.37-.56-.26-1.05-.62-1.45-1.08-.39-.47-.7-1.04-.91-1.71-.21-.67-.32-1.43-.32-2.27s.11-1.6.32-2.27c.21-.67.52-1.24.91-1.71.4-.47.89-.83,1.45-1.07.57-.25,1.21-.38,1.92-.38.62,0,1.17.09,1.66.28.47.19.89.44,1.23.76.34.33.62.71.83,1.14.22.44.37.9.46,1.4h2.76c-.11-.85-.35-1.65-.71-2.39-.35-.74-.83-1.38-1.41-1.93-.59-.54-1.29-.97-2.1-1.29-.81-.31-1.72-.47-2.73-.47-.73,0-1.43.09-2.07.26-.65.17-1.25.42-1.79.74-.55.32-1.04.72-1.47,1.18-.43.47-.79,1-1.09,1.58-.3.59-.53,1.23-.69,1.93-.16.7-.24,1.45-.24,2.24s.08,1.54.24,2.24c.16.7.39,1.34.69,1.93.3.59.67,1.11,1.1,1.58.43.46.92.86,1.46,1.18.54.33,1.14.57,1.79.74.64.18,1.34.26,2.07.26,1.01,0,1.92-.16,2.73-.47.81-.31,1.5-.74,2.09-1.29.59-.54,1.07-1.19,1.42-1.93.36-.73.6-1.53.71-2.39h-2.76c-.09.5-.24.96-.46,1.4Z"/>
    <path class="cls-2" d="M384.83,341.52c-.33-.96-.8-1.79-1.42-2.47-.61-.68-1.35-1.21-2.22-1.58-.87-.37-1.84-.56-2.92-.56s-2.09.19-2.98.57c-.9.38-1.67.92-2.31,1.61-.64.7-1.14,1.53-1.49,2.5-.35.97-.52,2.05-.52,3.23s.17,2.27.53,3.25c.35.98.85,1.82,1.5,2.51.65.7,1.43,1.24,2.33,1.62.91.38,1.92.57,3.03.57.88,0,1.69-.12,2.45-.37.76-.24,1.43-.6,2.03-1.06.59-.47,1.09-1.03,1.51-1.7.41-.67.72-1.42.91-2.26h-2.76c-.18.47-.4.89-.67,1.25-.26.37-.56.67-.9.91-.34.24-.71.43-1.13.55-.42.12-.88.18-1.37.18-.73,0-1.38-.12-1.96-.37-.58-.25-1.07-.61-1.48-1.08-.4-.46-.72-1.03-.93-1.69-.13-.4-.22-.82-.27-1.28h11.49c.02-.2.03-.39.04-.56s.01-.34.01-.51c0-1.2-.17-2.29-.5-3.26ZM373.84,343.46c.05-.31.12-.61.21-.89.21-.67.51-1.24.9-1.71.4-.47.87-.83,1.43-1.07.57-.25,1.2-.38,1.9-.38s1.3.12,1.83.36c.53.24.97.59,1.34,1.06.36.46.64,1.03.83,1.71.08.29.14.59.18.92h-8.62Z"/>
    <path class="cls-2" d="M400.67,346.56c-.18-.45-.43-.83-.74-1.15-.3-.32-.66-.58-1.07-.79-.4-.21-.83-.39-1.28-.52-.45-.14-.9-.25-1.36-.34-.46-.08-.91-.16-1.33-.22l-1-.16c-.28-.05-.56-.09-.85-.14-.28-.05-.56-.11-.83-.17-.26-.07-.51-.15-.74-.25-.24-.09-.44-.2-.61-.34-.17-.13-.31-.29-.41-.46-.1-.18-.15-.39-.15-.63,0-.31.09-.59.27-.85.17-.26.42-.48.75-.66.32-.19.71-.33,1.16-.43.45-.1.94-.15,1.48-.15.61,0,1.14.06,1.61.18.46.13.85.3,1.17.53.31.22.55.49.71.81.16.31.24.67.24,1.05h2.7c0-.76-.14-1.44-.43-2.05-.28-.62-.7-1.14-1.25-1.57-.54-.43-1.22-.76-2.02-.99-.79-.23-1.7-.35-2.73-.35s-1.87.11-2.65.32c-.79.22-1.45.52-2,.92-.55.39-.97.87-1.26,1.43-.3.56-.44,1.19-.44,1.88,0,.55.08,1.02.26,1.43.17.4.41.74.7,1.04.29.29.63.54,1.02.73.38.2.78.36,1.2.49.43.13.85.24,1.28.32.42.09.83.16,1.21.22l1,.17c.33.06.65.12.98.18.32.06.62.13.92.21.29.08.57.18.82.29.25.11.47.24.66.4.18.15.33.33.43.54.11.2.16.44.16.72,0,.35-.09.66-.27.93s-.45.5-.79.69c-.35.18-.77.32-1.27.42-.5.1-1.07.14-1.71.14-.71,0-1.33-.06-1.85-.17-.52-.12-.96-.3-1.3-.53-.35-.22-.6-.51-.77-.84-.17-.34-.26-.72-.26-1.15h-2.69c0,.82.15,1.54.43,2.17.29.63.72,1.16,1.3,1.59.57.44,1.29.76,2.14.99.86.22,1.86.33,3.01.33,1.09,0,2.06-.1,2.89-.31.84-.2,1.54-.5,2.11-.9.57-.39,1-.88,1.29-1.45.29-.58.44-1.24.44-1.98,0-.6-.1-1.13-.28-1.57Z"/>
  </g>
</svg>